<?xml version="1.0" standalone="no"?><!DOCTYPE svg PUBLIC "-//W3C//DTD SVG 1.1//EN" "http://www.w3.org/Graphics/SVG/1.1/DTD/svg11.dtd"><svg x="0px" y="0px" viewBox="0 0 460 160" style="border-bottom-color:rgb(0, 0, 238);border-left-color:rgb(0, 0, 238);border-right-color:rgb(0, 0, 238);border-top-color:rgb(0, 0, 238);color:rgb(0, 0, 238);cursor:pointer;font-size:32px;height:33.3906px;line-height:36.8px;outline-color:rgb(0, 0, 238);text-decoration:none solid rgb(0, 0, 238);text-decoration-color:rgb(0, 0, 238);width:96px;column-rule-color:rgb(0, 0, 238);perspective-origin:48px 16.6875px;-webkit-text-emphasis-color:rgb(0, 0, 238);-webkit-text-fill-color:rgb(0, 0, 238);-webkit-text-stroke-color:rgb(0, 0, 238);transform-origin:48px 16.6875px;caret-color:rgb(0, 0, 238);" xml:space="preserve" version="1.1" xmlns="http://www.w3.org/2000/svg" xmlns:xlink="http://www.w3.org/1999/xlink">
<g style="border-bottom-color:rgb(0, 0, 238);border-left-color:rgb(0, 0, 238);border-right-color:rgb(0, 0, 238);border-top-color:rgb(0, 0, 238);color:rgb(0, 0, 238);cursor:pointer;display:inline;font-size:32px;height:auto;line-height:36.8px;max-width:none;outline-color:rgb(0, 0, 238);overflow-x:visible;overflow-y:visible;text-decoration:none solid rgb(0, 0, 238);text-decoration-color:rgb(0, 0, 238);width:auto;column-rule-color:rgb(0, 0, 238);perspective-origin:0px 0px;-webkit-text-emphasis-color:rgb(0, 0, 238);-webkit-text-fill-color:rgb(0, 0, 238);-webkit-text-stroke-color:rgb(0, 0, 238);transform-origin:0px 0px;caret-color:rgb(0, 0, 238);">
  <path class="esi-logo-vector-0" d="M5,11.6c0-1.2,0.8-2.1,2.1-2.1h35.9C62.5,9.5,74,17,79.2,33.1C81.7,41,83,50.6,83,80.4&#10;    c0,29.8-1.2,39.4-3.8,47.3c-5.2,16.1-16.7,23.6-36.3,23.6H7.1c-1.3,0-2.1-0.8-2.1-2.1V11.6z M33.5,126.7h6.7&#10;    c6.9,0,10.6-2.5,12.7-8.8c1.7-4.4,2.3-10.4,2.3-37.5s-0.6-33.2-2.3-37.5c-2.1-6.3-5.8-8.8-12.7-8.8h-6.7c-0.8,0-1.2,0.4-1.2,1.2&#10;    v90.1C32.3,126.3,32.7,126.7,33.5,126.7z" style="border-bottom-color:rgb(0, 0, 238);border-left-color:rgb(0, 0, 238);border-right-color:rgb(0, 0, 238);border-top-color:rgb(0, 0, 238);color:rgb(0, 0, 238);cursor:pointer;display:inline;font-size:32px;height:auto;line-height:36.8px;max-width:none;outline-color:rgb(0, 0, 238);overflow-x:visible;overflow-y:visible;text-decoration:none solid rgb(0, 0, 238);text-decoration-color:rgb(0, 0, 238);width:auto;column-rule-color:rgb(0, 0, 238);perspective-origin:0px 0px;-webkit-text-emphasis-color:rgb(0, 0, 238);-webkit-text-fill-color:rgb(0, 0, 238);-webkit-text-stroke-color:rgb(0, 0, 238);transform-origin:0px 0px;fill:rgb(179, 178, 177);d:path('M 5 11.6 c 0 -1.2 0.8 -2.1 2.1 -2.1 h 35.9 C 62.5 9.5 74 17 79.2 33.1 C 81.7 41 83 50.6 83 80.4 c 0 29.8 -1.2 39.4 -3.8 47.3 c -5.2 16.1 -16.7 23.6 -36.3 23.6 H 7.1 c -1.3 0 -2.1 -0.8 -2.1 -2.1 V 11.6 Z M 33.5 126.7 h 6.7 c 6.9 0 10.6 -2.5 12.7 -8.8 c 1.7 -4.4 2.3 -10.4 2.3 -37.5 s -0.6 -33.2 -2.3 -37.5 c -2.1 -6.3 -5.8 -8.8 -12.7 -8.8 h -6.7 c -0.8 0 -1.2 0.4 -1.2 1.2 v 90.1 C 32.3 126.3 32.7 126.7 33.5 126.7 Z');caret-color:rgb(0, 0, 238);"/>
  <path class="esi-logo-vector-1 logo-e" d="M92.2,11.6c0-1.2,0.8-2.1,2.1-2.1h61.9c1.2,0,2.1,0.8,2.1,2.1V32c0,1.3-0.8,2.1-2.1,2.1h-35.5&#10;    c-0.8,0-1.2,0.4-1.2,1.2v30.9c0,0.8,0.4,1.3,1.2,1.3h30.7c1.2,0,2.1,0.8,2.1,2.1V90c0,1.2-0.8,2.1-2.1,2.1h-30.7&#10;    c-0.8,0-1.2,0.4-1.2,1.3v32.1c0,0.8,0.4,1.3,1.2,1.3h35.5c1.2,0,2.1,0.8,2.1,2.1v20.4c0,1.3-0.8,2.1-2.1,2.1H94.3&#10;    c-1.3,0-2.1-0.8-2.1-2.1V11.6z" style="border-bottom-color:rgb(0, 0, 238);border-left-color:rgb(0, 0, 238);border-right-color:rgb(0, 0, 238);border-top-color:rgb(0, 0, 238);color:rgb(0, 0, 238);cursor:pointer;display:inline;font-size:32px;height:auto;line-height:36.8px;max-width:none;outline-color:rgb(0, 0, 238);overflow-x:visible;overflow-y:visible;text-decoration:none solid rgb(0, 0, 238);text-decoration-color:rgb(0, 0, 238);width:auto;column-rule-color:rgb(0, 0, 238);perspective-origin:0px 0px;-webkit-text-emphasis-color:rgb(0, 0, 238);-webkit-text-fill-color:rgb(0, 0, 238);-webkit-text-stroke-color:rgb(0, 0, 238);transform-origin:0px 0px;fill:rgb(254, 254, 254);d:path('M 92.2 11.6 c 0 -1.2 0.8 -2.1 2.1 -2.1 h 61.9 c 1.2 0 2.1 0.8 2.1 2.1 V 32 c 0 1.3 -0.8 2.1 -2.1 2.1 h -35.5 c -0.8 0 -1.2 0.4 -1.2 1.2 v 30.9 c 0 0.8 0.4 1.3 1.2 1.3 h 30.7 c 1.2 0 2.1 0.8 2.1 2.1 V 90 c 0 1.2 -0.8 2.1 -2.1 2.1 h -30.7 c -0.8 0 -1.2 0.4 -1.2 1.3 v 32.1 c 0 0.8 0.4 1.3 1.2 1.3 h 35.5 c 1.2 0 2.1 0.8 2.1 2.1 v 20.4 c 0 1.3 -0.8 2.1 -2.1 2.1 H 94.3 c -1.3 0 -2.1 -0.8 -2.1 -2.1 V 11.6 Z');caret-color:rgb(0, 0, 238);"/>
  <path class="esi-logo-vector-1 logo-s" d="M201.7,153.2c-25.7,0-38-13.6-38.4-38c0-1.3,0.4-2.1,1.7-2.3l22.3-3.5c1.5-0.2,2.3,0.4,2.3,1.7&#10;    c0.4,13.1,4.2,18.4,12.3,18.4c7.7,0,11.3-4,11.3-16.9c0-12.5-2.5-16.9-13.1-21.1l-8.6-3.3c-20-7.7-26.9-18.4-26.9-41.1&#10;    c0-25.7,12.3-39.4,37.5-39.4c24.8,0,36.5,12.9,37.6,35.3c0,1.2-0.6,2.1-1.9,2.3l-21.3,3.3c-1.2,0.2-2.3-0.4-2.3-1.7&#10;    c-0.2-10.2-3.8-15.4-11.3-15.4c-7.3,0-10.8,4.6-10.8,14.2c0,10.6,2.3,14,13.3,18.4l8.6,3.3c19.4,7.5,26.9,17.9,26.9,41.9&#10;    C240.9,138.2,229.8,153.2,201.7,153.2z" style="border-bottom-color:rgb(0, 0, 238);border-left-color:rgb(0, 0, 238);border-right-color:rgb(0, 0, 238);border-top-color:rgb(0, 0, 238);color:rgb(0, 0, 238);cursor:pointer;display:inline;font-size:32px;height:auto;line-height:36.8px;max-width:none;outline-color:rgb(0, 0, 238);overflow-x:visible;overflow-y:visible;text-decoration:none solid rgb(0, 0, 238);text-decoration-color:rgb(0, 0, 238);width:auto;column-rule-color:rgb(0, 0, 238);perspective-origin:0px 0px;-webkit-text-emphasis-color:rgb(0, 0, 238);-webkit-text-fill-color:rgb(0, 0, 238);-webkit-text-stroke-color:rgb(0, 0, 238);transform-origin:0px 0px;fill:rgb(254, 254, 254);d:path('M 201.7 153.2 c -25.7 0 -38 -13.6 -38.4 -38 c 0 -1.3 0.4 -2.1 1.7 -2.3 l 22.3 -3.5 c 1.5 -0.2 2.3 0.4 2.3 1.7 c 0.4 13.1 4.2 18.4 12.3 18.4 c 7.7 0 11.3 -4 11.3 -16.9 c 0 -12.5 -2.5 -16.9 -13.1 -21.1 l -8.6 -3.3 c -20 -7.7 -26.9 -18.4 -26.9 -41.1 c 0 -25.7 12.3 -39.4 37.5 -39.4 c 24.8 0 36.5 12.9 37.6 35.3 c 0 1.2 -0.6 2.1 -1.9 2.3 l -21.3 3.3 c -1.2 0.2 -2.3 -0.4 -2.3 -1.7 c -0.2 -10.2 -3.8 -15.4 -11.3 -15.4 c -7.3 0 -10.8 4.6 -10.8 14.2 c 0 10.6 2.3 14 13.3 18.4 l 8.6 3.3 c 19.4 7.5 26.9 17.9 26.9 41.9 C 240.9 138.2 229.8 153.2 201.7 153.2 Z');caret-color:rgb(0, 0, 238);"/>
  <path class="esi-logo-vector-1 logo-i" d="M250,11.6c0-1.2,0.8-2.1,2.1-2.1h23.1c1.2,0,2.1,0.8,2.1,2.1v137.7c0,1.3-0.8,2.1-2.1,2.1h-23.1&#10;    c-1.3,0-2.1-0.8-2.1-2.1V11.6z" style="border-bottom-color:rgb(0, 0, 238);border-left-color:rgb(0, 0, 238);border-right-color:rgb(0, 0, 238);border-top-color:rgb(0, 0, 238);color:rgb(0, 0, 238);cursor:pointer;display:inline;font-size:32px;height:auto;line-height:36.8px;max-width:none;outline-color:rgb(0, 0, 238);overflow-x:visible;overflow-y:visible;text-decoration:none solid rgb(0, 0, 238);text-decoration-color:rgb(0, 0, 238);width:auto;column-rule-color:rgb(0, 0, 238);perspective-origin:0px 0px;-webkit-text-emphasis-color:rgb(0, 0, 238);-webkit-text-fill-color:rgb(0, 0, 238);-webkit-text-stroke-color:rgb(0, 0, 238);transform-origin:0px 0px;fill:rgb(254, 254, 254);d:path('M 250 11.6 c 0 -1.2 0.8 -2.1 2.1 -2.1 h 23.1 c 1.2 0 2.1 0.8 2.1 2.1 v 137.7 c 0 1.3 -0.8 2.1 -2.1 2.1 h -23.1 c -1.3 0 -2.1 -0.8 -2.1 -2.1 V 11.6 Z');caret-color:rgb(0, 0, 238);"/>
  <path class="esi-logo-vector-0" d="M287.1,80.4c0-36.5,0.6-42.3,2.7-49c5.2-15.4,17.5-23.8,36.5-23.8c22.9,0,36.3,12.3,38.2,35.3&#10;    c0.2,1.2-0.4,2.3-1.7,2.5l-22.1,3.8c-1.3,0.2-2.1-0.4-2.3-1.9c-0.6-10.2-4.8-15-11.9-15c-5,0-9.2,2.7-10.4,6.7&#10;    c-1,3.3-1.2,5-1.2,41.5c0,36.3,0.2,38.2,1.2,41.3c1.3,4.2,5.6,6.9,10.9,6.9s9.6-2.7,10.8-6.9c0.8-2.9,1.2-5,1.2-25.9&#10;    c0-0.8-0.4-1.2-1.2-1.2h-9c-1.3,0-2.1-0.8-2.1-2.1V74.1c0-1.3,0.8-2.1,2.1-2.1h34.4c1.2,0,2.1,0.8,2.1,2.1v6.3&#10;    c0,36.5-0.6,42.3-2.9,48.8c-5.2,15.7-17.5,24-36.1,24c-19,0-31.3-8.3-36.5-23.8C287.7,122.7,287.1,116.9,287.1,80.4z" style="border-bottom-color:rgb(0, 0, 238);border-left-color:rgb(0, 0, 238);border-right-color:rgb(0, 0, 238);border-top-color:rgb(0, 0, 238);color:rgb(0, 0, 238);cursor:pointer;display:inline;font-size:32px;height:auto;line-height:36.8px;max-width:none;outline-color:rgb(0, 0, 238);overflow-x:visible;overflow-y:visible;text-decoration:none solid rgb(0, 0, 238);text-decoration-color:rgb(0, 0, 238);width:auto;column-rule-color:rgb(0, 0, 238);perspective-origin:0px 0px;-webkit-text-emphasis-color:rgb(0, 0, 238);-webkit-text-fill-color:rgb(0, 0, 238);-webkit-text-stroke-color:rgb(0, 0, 238);transform-origin:0px 0px;fill:rgb(179, 178, 177);d:path('M 287.1 80.4 c 0 -36.5 0.6 -42.3 2.7 -49 c 5.2 -15.4 17.5 -23.8 36.5 -23.8 c 22.9 0 36.3 12.3 38.2 35.3 c 0.2 1.2 -0.4 2.3 -1.7 2.5 l -22.1 3.8 c -1.3 0.2 -2.1 -0.4 -2.3 -1.9 c -0.6 -10.2 -4.8 -15 -11.9 -15 c -5 0 -9.2 2.7 -10.4 6.7 c -1 3.3 -1.2 5 -1.2 41.5 c 0 36.3 0.2 38.2 1.2 41.3 c 1.3 4.2 5.6 6.9 10.9 6.9 s 9.6 -2.7 10.8 -6.9 c 0.8 -2.9 1.2 -5 1.2 -25.9 c 0 -0.8 -0.4 -1.2 -1.2 -1.2 h -9 c -1.3 0 -2.1 -0.8 -2.1 -2.1 V 74.1 c 0 -1.3 0.8 -2.1 2.1 -2.1 h 34.4 c 1.2 0 2.1 0.8 2.1 2.1 v 6.3 c 0 36.5 -0.6 42.3 -2.9 48.8 c -5.2 15.7 -17.5 24 -36.1 24 c -19 0 -31.3 -8.3 -36.5 -23.8 C 287.7 122.7 287.1 116.9 287.1 80.4 Z');caret-color:rgb(0, 0, 238);"/>
  <path class="esi-logo-vector-0" d="M374.5,11.6c0-1.2,0.8-2.1,2.1-2.1h26.1c1.7,0,2.5,0.6,2.9,2.1l23.6,89.1h1V11.6c0-1.2,0.8-2.1,2.1-2.1h19.8&#10;    c1.2,0,2.1,0.8,2.1,2.1v137.7c0,1.3-0.8,2.1-2.1,2.1h-25c-1.7,0-2.5-0.6-2.9-2.1l-24.6-89.1h-1v89.1c0,1.3-0.8,2.1-2.1,2.1h-19.8&#10;    c-1.3,0-2.1-0.8-2.1-2.1V11.6z" style="border-bottom-color:rgb(0, 0, 238);border-left-color:rgb(0, 0, 238);border-right-color:rgb(0, 0, 238);border-top-color:rgb(0, 0, 238);color:rgb(0, 0, 238);cursor:pointer;display:inline;font-size:32px;height:auto;line-height:36.8px;max-width:none;outline-color:rgb(0, 0, 238);overflow-x:visible;overflow-y:visible;text-decoration:none solid rgb(0, 0, 238);text-decoration-color:rgb(0, 0, 238);width:auto;column-rule-color:rgb(0, 0, 238);perspective-origin:0px 0px;-webkit-text-emphasis-color:rgb(0, 0, 238);-webkit-text-fill-color:rgb(0, 0, 238);-webkit-text-stroke-color:rgb(0, 0, 238);transform-origin:0px 0px;fill:rgb(179, 178, 177);d:path('M 374.5 11.6 c 0 -1.2 0.8 -2.1 2.1 -2.1 h 26.1 c 1.7 0 2.5 0.6 2.9 2.1 l 23.6 89.1 h 1 V 11.6 c 0 -1.2 0.8 -2.1 2.1 -2.1 h 19.8 c 1.2 0 2.1 0.8 2.1 2.1 v 137.7 c 0 1.3 -0.8 2.1 -2.1 2.1 h -25 c -1.7 0 -2.5 -0.6 -2.9 -2.1 l -24.6 -89.1 h -1 v 89.1 c 0 1.3 -0.8 2.1 -2.1 2.1 h -19.8 c -1.3 0 -2.1 -0.8 -2.1 -2.1 V 11.6 Z');caret-color:rgb(0, 0, 238);"/>
</g>
</svg>